<svg width="230" height="230" viewBox="0 0 230 230" fill="none" xmlns="http://www.w3.org/2000/svg">
<g filter="url(#filter0_d_386_788)">
<circle cx="119" cy="115" r="100" stroke="url(#paint0_linear_386_788)" stroke-width="10" stroke-linejoin="round" stroke-dasharray="5 5"/>
</g>
<circle cx="119" cy="115" r="98" fill="url(#paint1_linear_386_788)" stroke="url(#paint2_linear_386_788)" stroke-width="14" stroke-linejoin="round" stroke-dasharray="5 5"/>
<path d="M82.9194 133.72C85.0634 133.72 87.0234 133.2 88.7994 132.16C90.5754 131.104 91.9994 129.696 93.0714 127.936C94.1434 126.176 94.6794 124.24 94.6794 122.128C94.6794 120 94.1754 118.072 93.1674 116.344C92.1594 114.616 90.7994 113.248 89.0874 112.24C87.3754 111.216 85.4554 110.704 83.3274 110.704C82.0314 110.704 80.7754 110.936 79.5594 111.4C78.3434 111.848 77.2634 112.488 76.3194 113.32L77.0154 101.824H92.2554V98.44H73.7994L72.7434 116.416L75.9594 117.76C76.6634 116.672 77.6074 115.776 78.7914 115.072C79.9754 114.368 81.3834 114.016 83.0154 114.016C84.4714 114.016 85.8154 114.376 87.0474 115.096C88.2794 115.816 89.2714 116.792 90.0234 118.024C90.7754 119.24 91.1514 120.608 91.1514 122.128C91.1514 123.6 90.7914 124.952 90.0714 126.184C89.3514 127.416 88.3754 128.408 87.1434 129.16C85.9274 129.896 84.5514 130.264 83.0154 130.264C81.2394 130.264 79.5994 129.72 78.0954 128.632C76.5914 127.544 75.6074 126.064 75.1434 124.192L71.7594 125.104C72.2234 126.784 72.9914 128.272 74.0634 129.568C75.1354 130.864 76.4314 131.88 77.9514 132.616C79.4714 133.352 81.1274 133.72 82.9194 133.72ZM115.639 133H119.191V126.304H122.958V122.944H119.191V112.864H115.639V122.944H103.423L114.991 98.44H111.031L99.4625 122.944V126.304H115.639V133ZM136.895 115C138.479 115 139.919 114.616 141.215 113.848C142.527 113.064 143.575 112.024 144.359 110.728C145.143 109.416 145.535 107.96 145.535 106.36C145.535 104.76 145.143 103.312 144.359 102.016C143.575 100.704 142.527 99.664 141.215 98.896C139.919 98.112 138.479 97.72 136.895 97.72C135.359 97.72 133.935 98.112 132.623 98.896C131.311 99.68 130.255 100.728 129.455 102.04C128.655 103.352 128.255 104.792 128.255 106.36C128.255 107.96 128.647 109.416 129.431 110.728C130.215 112.024 131.255 113.064 132.551 113.848C133.863 114.616 135.311 115 136.895 115ZM132.095 133L164.327 100.816L161.927 98.44L129.695 130.6L132.095 133ZM136.895 111.808C135.919 111.808 135.015 111.56 134.183 111.064C133.351 110.568 132.687 109.904 132.191 109.072C131.695 108.24 131.447 107.336 131.447 106.36C131.447 105.368 131.695 104.464 132.191 103.648C132.687 102.816 133.351 102.152 134.183 101.656C135.015 101.16 135.919 100.912 136.895 100.912C137.887 100.912 138.791 101.16 139.607 101.656C140.439 102.152 141.103 102.816 141.599 103.648C142.095 104.464 142.343 105.368 142.343 106.36C142.343 107.336 142.095 108.24 141.599 109.072C141.103 109.904 140.439 110.568 139.607 111.064C138.791 111.56 137.887 111.808 136.895 111.808ZM157.127 133.72C158.711 133.72 160.151 133.336 161.447 132.568C162.759 131.784 163.807 130.744 164.591 129.448C165.375 128.136 165.767 126.68 165.767 125.08C165.767 123.48 165.375 122.032 164.591 120.736C163.807 119.424 162.759 118.384 161.447 117.616C160.151 116.832 158.711 116.44 157.127 116.44C155.591 116.44 154.167 116.832 152.855 117.616C151.543 118.4 150.487 119.448 149.687 120.76C148.887 122.072 148.487 123.512 148.487 125.08C148.487 126.68 148.871 128.136 149.639 129.448C150.423 130.744 151.471 131.784 152.783 132.568C154.095 133.336 155.543 133.72 157.127 133.72ZM157.127 130.528C156.151 130.528 155.247 130.28 154.415 129.784C153.583 129.288 152.919 128.624 152.423 127.792C151.927 126.96 151.679 126.056 151.679 125.08C151.679 124.088 151.927 123.184 152.423 122.368C152.919 121.536 153.583 120.872 154.415 120.376C155.247 119.88 156.151 119.632 157.127 119.632C158.119 119.632 159.023 119.88 159.839 120.376C160.671 120.872 161.335 121.536 161.831 122.368C162.327 123.184 162.575 124.088 162.575 125.08C162.575 126.056 162.327 126.96 161.831 127.792C161.335 128.624 160.671 129.288 159.839 129.784C159.023 130.28 158.119 130.528 157.127 130.528Z" fill="black"/>
<defs>
<filter id="filter0_d_386_788" x="0" y="0" width="230" height="230" filterUnits="userSpaceOnUse" color-interpolation-filters="sRGB">
<feFlood flood-opacity="0" result="BackgroundImageFix"/>
<feColorMatrix in="SourceAlpha" type="matrix" values="0 0 0 0 0 0 0 0 0 0 0 0 0 0 0 0 0 0 127 0" result="hardAlpha"/>
<feOffset dx="-4"/>
<feGaussianBlur stdDeviation="5"/>
<feColorMatrix type="matrix" values="0 0 0 0 0.180392 0 0 0 0 0.360784 0 0 0 0 1 0 0 0 0.4 0"/>
<feBlend mode="normal" in2="BackgroundImageFix" result="effect1_dropShadow_386_788"/>
<feBlend mode="normal" in="SourceGraphic" in2="effect1_dropShadow_386_788" result="shape"/>
</filter>
<linearGradient id="paint0_linear_386_788" x1="224" y1="115" x2="14" y2="115" gradientUnits="userSpaceOnUse">
<stop offset="0.478066" stop-color="#2D5BFF"/>
<stop offset="0.481623" stop-color="#2D5BFF" stop-opacity="0"/>
</linearGradient>
<linearGradient id="paint1_linear_386_788" x1="224" y1="115" x2="25" y2="115" gradientUnits="userSpaceOnUse">
<stop offset="0.517058" stop-color="#F8F8F8" stop-opacity="0"/>
<stop offset="0.517616" stop-color="#F8F8F8"/>
</linearGradient>
<linearGradient id="paint2_linear_386_788" x1="224" y1="115" x2="10.5" y2="115" gradientUnits="userSpaceOnUse">
<stop offset="0.471361" stop-color="#EDEBE3" stop-opacity="0"/>
<stop offset="0.47343" stop-color="#EDEBE3"/>
</linearGradient>
</defs>
</svg>
