<svg width="65" height="65" viewBox="0 0 65 65" fill="none" xmlns="http://www.w3.org/2000/svg">
<rect width="65" height="65" rx="20" fill="black"/>
<path d="M32.4999 38.5416C33.1409 38.5416 33.7555 38.287 34.2088 37.8338C34.662 37.3805 34.9166 36.7659 34.9166 36.1249C34.9166 35.484 34.662 34.8693 34.2088 34.4161C33.7555 33.9629 33.1409 33.7083 32.4999 33.7083C31.859 33.7083 31.2443 33.9629 30.7911 34.4161C30.3379 34.8693 30.0833 35.484 30.0833 36.1249C30.0833 36.7659 30.3379 37.3805 30.7911 37.8338C31.2443 38.287 31.859 38.5416 32.4999 38.5416ZM39.7499 27.6666C40.3909 27.6666 41.0055 27.9212 41.4588 28.3744C41.912 28.8276 42.1666 29.4423 42.1666 30.0833V42.1666C42.1666 42.8075 41.912 43.4222 41.4588 43.8754C41.0055 44.3286 40.3909 44.5833 39.7499 44.5833H25.2499C24.609 44.5833 23.9943 44.3286 23.5411 43.8754C23.0879 43.4222 22.8333 42.8075 22.8333 42.1666V30.0833C22.8333 29.4423 23.0879 28.8276 23.5411 28.3744C23.9943 27.9212 24.609 27.6666 25.2499 27.6666H26.4583V25.2499C26.4583 23.6476 27.0948 22.1108 28.2278 20.9778C29.3608 19.8448 30.8976 19.2083 32.4999 19.2083C33.2933 19.2083 34.079 19.3645 34.812 19.6681C35.545 19.9718 36.211 20.4168 36.772 20.9778C37.333 21.5388 37.7781 22.2049 38.0817 22.9379C38.3853 23.6709 38.5416 24.4565 38.5416 25.2499V27.6666H39.7499ZM32.4999 21.6249C31.5385 21.6249 30.6165 22.0068 29.9367 22.6867C29.2568 23.3665 28.8749 24.2885 28.8749 25.2499V27.6666H36.1249V25.2499C36.1249 24.2885 35.743 23.3665 35.0632 22.6867C34.3834 22.0068 33.4613 21.6249 32.4999 21.6249Z" fill="white"/>
</svg>
