<svg width="22" height="22" viewBox="0 0 22 22" fill="none" xmlns="http://www.w3.org/2000/svg">
<path d="M3.6665 19.25L3.6665 2.74999L10.0832 2.74999C10.3263 2.74999 10.5594 2.65341 10.7314 2.4815C10.9033 2.3096 10.9998 2.07644 10.9998 1.83332C10.9998 1.59021 10.9033 1.35705 10.7314 1.18514C10.5594 1.01323 10.3263 0.916656 10.0832 0.916656L2.74984 0.916656C2.50672 0.916656 2.27356 1.01323 2.10165 1.18514C1.92975 1.35705 1.83317 1.59021 1.83317 1.83332L1.83317 20.1667C1.83317 20.4098 1.92975 20.6429 2.10165 20.8148C2.27356 20.9867 2.50672 21.0833 2.74984 21.0833L10.0832 21.0833C10.3263 21.0833 10.5594 20.9867 10.7314 20.8148C10.9033 20.6429 10.9998 20.4098 10.9998 20.1667C10.9998 19.9235 10.9033 19.6904 10.7314 19.5185C10.5594 19.3466 10.3263 19.25 10.0832 19.25L3.6665 19.25ZM20.1665 11C20.1665 11.2431 20.0699 11.4763 19.898 11.6482C19.7261 11.8201 19.493 11.9167 19.2498 11.9167L8.62934 11.9167L10.7313 14.0186C10.8188 14.1031 10.8886 14.2043 10.9367 14.3161C10.9847 14.428 11.01 14.5482 11.0111 14.67C11.0121 14.7917 10.9889 14.9124 10.9428 15.025C10.8967 15.1377 10.8287 15.24 10.7426 15.3261C10.6565 15.4122 10.5542 15.4802 10.4415 15.5263C10.3289 15.5724 10.2082 15.5956 10.0865 15.5946C9.96476 15.5935 9.84447 15.5682 9.73263 15.5202C9.6208 15.4721 9.51965 15.4023 9.43509 15.3147L5.76842 11.6481C5.59657 11.4762 5.50003 11.2431 5.50003 11C5.50003 10.7569 5.59657 10.5238 5.76842 10.3519L9.43509 6.68524C9.51965 6.59769 9.6208 6.52785 9.73263 6.47981C9.84447 6.43177 9.96476 6.40648 10.0865 6.40543C10.2082 6.40437 10.3289 6.42756 10.4415 6.47365C10.5542 6.51974 10.6565 6.58781 10.7426 6.67388C10.8287 6.75995 10.8967 6.86229 10.9428 6.97495C10.9889 7.0876 11.0121 7.20831 11.0111 7.33002C11.01 7.45174 10.9847 7.57202 10.9367 7.68386C10.8886 7.7957 10.8188 7.89685 10.7313 7.98141L8.62934 10.0833L19.2498 10.0833C19.493 10.0833 19.7261 10.1799 19.898 10.3518C20.0699 10.5237 20.1665 10.7569 20.1665 11Z" fill="black"/>
</svg>
